<?xml version="1.0" encoding="UTF-8"?>
<svg width="67px" height="71px" viewBox="0 0 67 71" version="1.1" xmlns="http://www.w3.org/2000/svg" xmlns:xlink="http://www.w3.org/1999/xlink">
    <!-- Generator: Sketch 47.1 (45422) - http://www.bohemiancoding.com/sketch -->
    <title>noun_836100_cc</title>
    <desc>Created with Sketch.</desc>
    <defs></defs>
    <g stroke="none" stroke-width="1" fill="none" fill-rule="evenodd">
        <g fill="#FFFFFF" fill-rule="nonzero">
            <path d="M6.15,46.18 C6.16102134,55.741003 13.908997,63.4889787 23.47,63.5 L44.74,63.5 C51.4626607,63.4996129 57.2008614,58.6416265 58.3104779,52.0111726 C59.4200944,45.3807188 55.5762366,38.9191603 49.22,36.73 L41.68,34.13 L48.17,13.3 L52.9,13.3 C53.6486163,13.2967016 54.2801908,12.7419403 54.38,12 C54.4065713,11.9481426 54.4299482,11.8947097 54.45,11.84 L56.87,2.7 C57.1111238,2.15171546 57.0029571,1.51254146 56.5948549,1.07412474 C56.1867527,0.635708032 55.5569531,0.482098375 54.9928255,0.683385859 C54.4286978,0.884673343 54.0383922,1.40226873 54,2 L51.79,10.33 L40.79,10.33 C39.9615729,10.33 39.29,11.0015729 39.29,11.83 C39.29,12.6584271 39.9615729,13.33 40.79,13.33 L45,13.33 L38.84,33.16 L29.11,29.81 C25.4064527,28.495863 21.3635473,28.495863 17.66,29.81 L15.42,21.08 L19.75,21.08 C20.5784271,21.08 21.25,20.4084271 21.25,19.58 C21.25,18.7515729 20.5784271,18.08 19.75,18.08 L7.65,18.08 C6.82157288,18.08 6.15,18.7515729 6.15,19.58 C6.15,20.4084271 6.82157288,21.08 7.65,21.08 L12.32,21.08 L14.89,31.08 C14.39,31.37 13.89,31.68 13.41,32.02 C8.81152757,35.2613959 6.09785559,40.5541776 6.15,46.18 Z M15.15,34.52 C17.5580808,32.7828363 20.4507306,31.8454359 23.42,31.84 C25.0235129,31.8434851 26.6152631,32.1138461 28.13,32.64 L48.24,39.57 C49.9949992,40.1758943 51.5627517,41.2268053 52.79,42.62 L45.85,42.62 C45.0215729,42.62 44.35,43.2915729 44.35,44.12 C44.35,44.9484271 45.0215729,45.62 45.85,45.62 L54.2,45.62 C54.3493586,45.6190028 54.4977058,45.5954021 54.64,45.55 C54.9895493,46.3728743 55.2347867,47.2362443 55.37,48.12 L45.85,48.12 C45.0215729,48.12 44.35,48.7915729 44.35,49.62 C44.35,50.4484271 45.0215729,51.12 45.85,51.12 L55.4,51.12 C55.2886946,51.9761761 55.0737869,52.8156592 54.76,53.62 L45.85,53.62 C45.0215729,53.62 44.35,54.2915729 44.35,55.12 C44.35,55.9484271 45.0215729,56.62 45.85,56.62 L53,56.62 C50.9603784,59.0769581 47.9332269,60.498913 44.74,60.5 L23.47,60.5 C15.56585,60.4889837 9.16101625,54.08415 9.15,46.18 C9.12367101,41.5438111 11.3686147,37.1883962 15.16,34.52 L15.15,34.52 Z"></path>
            <path d="M22.16,52 C23.4101586,51.9993006 24.6268659,51.596069 25.63,50.85 L31.29,55 C31.958479,55.4543995 32.8667953,55.2974071 33.343974,54.6449934 C33.8211526,53.9925796 33.6955725,53.0793903 33.06,52.58 L27.5,48.51 C28.5498186,46.1359736 27.9126983,43.3541851 25.9342702,41.6737259 C23.9558422,39.9932667 21.1076215,39.8146376 18.9347383,41.2347429 C16.7618551,42.6548482 15.7821686,45.3352369 16.5271485,47.821826 C17.2721285,50.3084152 19.5642252,52.0085805 22.16,52 Z M22.16,43.28 C23.7395344,43.28 25.02,44.5604656 25.02,46.14 C25.02,47.7195344 23.7395344,49 22.16,49 C20.5804656,49 19.3,47.7195344 19.3,46.14 C19.3218747,44.5761086 20.5959556,43.319847 22.16,43.32 L22.16,43.28 Z"></path>
            <path d="M0.5,69.38 C0.5,70.2084271 1.17157288,70.88 2,70.88 L65.5,70.88 C66.3284271,70.88 67,70.2084271 67,69.38 C67,68.5515729 66.3284271,67.88 65.5,67.88 L2,67.88 C1.17157288,67.88 0.5,68.5515729 0.5,69.38 Z"></path>
        </g>
    </g>
</svg>