<?xml version="1.0" encoding="UTF-8"?>
<svg width="64px" height="64px" viewBox="0 0 64 64" version="1.1" xmlns="http://www.w3.org/2000/svg" xmlns:xlink="http://www.w3.org/1999/xlink">
    <!-- Generator: Sketch 45.2 (43514) - http://www.bohemiancoding.com/sketch -->
    <title>Favicon</title>
    <desc>Created with Sketch.</desc>
    <defs>
        <linearGradient x1="100%" y1="0%" x2="0%" y2="100%" id="linearGradient-1">
            <stop stop-color="#F2BB30" offset="0%"></stop>
            <stop stop-color="#E62F17" offset="100%"></stop>
        </linearGradient>
    </defs>
    <g id="Page-1" stroke="none" stroke-width="1" fill="none" fill-rule="evenodd">
        <g id="Favicon">
            <rect id="Rectangle-5" fill="url(#linearGradient-1)" x="0" y="0" width="64" height="64" rx="8"></rect>
            <path d="M23.8211921,20.2913907 C22.4423089,20.2913907 21.3245033,19.1735851 21.3245033,17.794702 C21.3245033,16.4158189 22.4423089,15.2980132 23.8211921,15.2980132 C25.2000752,15.2980132 26.3178808,16.4158189 26.3178808,17.794702 C26.3178808,19.1735851 25.2000752,20.2913907 23.8211921,20.2913907 Z M17.794702,26.3178808 C16.4158189,26.3178808 15.2980132,25.2000752 15.2980132,23.8211921 C15.2980132,22.4423089 16.4158189,21.3245033 17.794702,21.3245033 C19.1735851,21.3245033 20.2913907,22.4423089 20.2913907,23.8211921 C20.2913907,25.2000752 19.1735851,26.3178808 17.794702,26.3178808 Z M11.6821192,22.7880795 C10.3032361,22.7880795 9.18543046,21.6702738 9.18543046,20.2913907 C9.18543046,18.9125076 10.3032361,17.794702 11.6821192,17.794702 C13.0610023,17.794702 14.1788079,18.9125076 14.1788079,20.2913907 C14.1788079,21.6702738 13.0610023,22.7880795 11.6821192,22.7880795 Z M8.49668874,34.4966887 C7.11780562,34.4966887 6,33.3788831 6,32 C6,30.6211169 7.11780562,29.5033113 8.49668874,29.5033113 C9.87557186,29.5033113 10.9933775,30.6211169 10.9933775,32 C10.9933775,33.3788831 9.87557186,34.4966887 8.49668874,34.4966887 Z M15.6423841,34.4966887 C14.263501,34.4966887 13.1456954,33.3788831 13.1456954,32 C13.1456954,30.6211169 14.263501,29.5033113 15.6423841,29.5033113 C17.0212672,29.5033113 18.1390728,30.6211169 18.1390728,32 C18.1390728,33.3788831 17.0212672,34.4966887 15.6423841,34.4966887 Z M17.794702,42.6754967 C16.4158189,42.6754967 15.2980132,41.5576911 15.2980132,40.1788079 C15.2980132,38.7999248 16.4158189,37.6821192 17.794702,37.6821192 C19.1735851,37.6821192 20.2913907,38.7999248 20.2913907,40.1788079 C20.2913907,41.5576911 19.1735851,42.6754967 17.794702,42.6754967 Z M11.6821192,46.205298 C10.3032361,46.205298 9.18543046,45.0874924 9.18543046,43.7086093 C9.18543046,42.3297262 10.3032361,41.2119205 11.6821192,41.2119205 C13.0610023,41.2119205 14.1788079,42.3297262 14.1788079,43.7086093 C14.1788079,45.0874924 13.0610023,46.205298 11.6821192,46.205298 Z M20.2913907,54.8145695 C18.9125076,54.8145695 17.794702,53.6967639 17.794702,52.3178808 C17.794702,50.9389977 18.9125076,49.8211921 20.2913907,49.8211921 C21.6702738,49.8211921 22.7880795,50.9389977 22.7880795,52.3178808 C22.7880795,53.6967639 21.6702738,54.8145695 20.2913907,54.8145695 Z M23.8211921,48.7019868 C22.4423089,48.7019868 21.3245033,47.5841811 21.3245033,46.205298 C21.3245033,44.8264149 22.4423089,43.7086093 23.8211921,43.7086093 C25.2000752,43.7086093 26.3178808,44.8264149 26.3178808,46.205298 C26.3178808,47.5841811 25.2000752,48.7019868 23.8211921,48.7019868 Z M32,50.8543046 C30.6211169,50.8543046 29.5033113,49.736499 29.5033113,48.3576159 C29.5033113,46.9787328 30.6211169,45.8609272 32,45.8609272 C33.3788831,45.8609272 34.4966887,46.9787328 34.4966887,48.3576159 C34.4966887,49.736499 33.3788831,50.8543046 32,50.8543046 Z M32,58 C30.6211169,58 29.5033113,56.8821944 29.5033113,55.5033113 C29.5033113,54.1244281 30.6211169,53.0066225 32,53.0066225 C33.3788831,53.0066225 34.4966887,54.1244281 34.4966887,55.5033113 C34.4966887,56.8821944 33.3788831,58 32,58 Z M40.1788079,48.7019868 C38.7999248,48.7019868 37.6821192,47.5841811 37.6821192,46.205298 C37.6821192,44.8264149 38.7999248,43.7086093 40.1788079,43.7086093 C41.5576911,43.7086093 42.6754967,44.8264149 42.6754967,46.205298 C42.6754967,47.5841811 41.5576911,48.7019868 40.1788079,48.7019868 Z M43.7086093,54.8145695 C42.3297262,54.8145695 41.2119205,53.6967639 41.2119205,52.3178808 C41.2119205,50.9389977 42.3297262,49.8211921 43.7086093,49.8211921 C45.0874924,49.8211921 46.205298,50.9389977 46.205298,52.3178808 C46.205298,53.6967639 45.0874924,54.8145695 43.7086093,54.8145695 Z M52.3178808,46.205298 C50.9389977,46.205298 49.8211921,45.0874924 49.8211921,43.7086093 C49.8211921,42.3297262 50.9389977,41.2119205 52.3178808,41.2119205 C53.6967639,41.2119205 54.8145695,42.3297262 54.8145695,43.7086093 C54.8145695,45.0874924 53.6967639,46.205298 52.3178808,46.205298 Z M46.205298,42.6754967 C44.8264149,42.6754967 43.7086093,41.5576911 43.7086093,40.1788079 C43.7086093,38.7999248 44.8264149,37.6821192 46.205298,37.6821192 C47.5841811,37.6821192 48.7019868,38.7999248 48.7019868,40.1788079 C48.7019868,41.5576911 47.5841811,42.6754967 46.205298,42.6754967 Z M48.3576159,34.4966887 C46.9787328,34.4966887 45.8609272,33.3788831 45.8609272,32 C45.8609272,30.6211169 46.9787328,29.5033113 48.3576159,29.5033113 C49.736499,29.5033113 50.8543046,30.6211169 50.8543046,32 C50.8543046,33.3788831 49.736499,34.4966887 48.3576159,34.4966887 Z M55.5033113,34.4966887 C54.1244281,34.4966887 53.0066225,33.3788831 53.0066225,32 C53.0066225,30.6211169 54.1244281,29.5033113 55.5033113,29.5033113 C56.8821944,29.5033113 58,30.6211169 58,32 C58,33.3788831 56.8821944,34.4966887 55.5033113,34.4966887 Z M46.205298,26.3178808 C44.8264149,26.3178808 43.7086093,25.2000752 43.7086093,23.8211921 C43.7086093,22.4423089 44.8264149,21.3245033 46.205298,21.3245033 C47.5841811,21.3245033 48.7019868,22.4423089 48.7019868,23.8211921 C48.7019868,25.2000752 47.5841811,26.3178808 46.205298,26.3178808 Z M52.3178808,22.7880795 C50.9389977,22.7880795 49.8211921,21.6702738 49.8211921,20.2913907 C49.8211921,18.9125076 50.9389977,17.794702 52.3178808,17.794702 C53.6967639,17.794702 54.8145695,18.9125076 54.8145695,20.2913907 C54.8145695,21.6702738 53.6967639,22.7880795 52.3178808,22.7880795 Z M40.1788079,20.2913907 C38.7999248,20.2913907 37.6821192,19.1735851 37.6821192,17.794702 C37.6821192,16.4158189 38.7999248,15.2980132 40.1788079,15.2980132 C41.5576911,15.2980132 42.6754967,16.4158189 42.6754967,17.794702 C42.6754967,19.1735851 41.5576911,20.2913907 40.1788079,20.2913907 Z M43.7086093,14.1788079 C42.3297262,14.1788079 41.2119205,13.0610023 41.2119205,11.6821192 C41.2119205,10.3032361 42.3297262,9.18543046 43.7086093,9.18543046 C45.0874924,9.18543046 46.205298,10.3032361 46.205298,11.6821192 C46.205298,13.0610023 45.0874924,14.1788079 43.7086093,14.1788079 Z M32,10.9933775 C30.6211169,10.9933775 29.5033113,9.87557186 29.5033113,8.49668874 C29.5033113,7.11780562 30.6211169,6 32,6 C33.3788831,6 34.4966887,7.11780562 34.4966887,8.49668874 C34.4966887,9.87557186 33.3788831,10.9933775 32,10.9933775 Z M32,18.1390728 C30.6211169,18.1390728 29.5033113,17.0212672 29.5033113,15.6423841 C29.5033113,14.263501 30.6211169,13.1456954 32,13.1456954 C33.3788831,13.1456954 34.4966887,14.263501 34.4966887,15.6423841 C34.4966887,17.0212672 33.3788831,18.1390728 32,18.1390728 Z M20.2913907,14.1788079 C18.9125076,14.1788079 17.794702,13.0610023 17.794702,11.6821192 C17.794702,10.3032361 18.9125076,9.18543046 20.2913907,9.18543046 C21.6702738,9.18543046 22.7880795,10.3032361 22.7880795,11.6821192 C22.7880795,13.0610023 21.6702738,14.1788079 20.2913907,14.1788079 Z M17.4503311,20.3774834 C15.8337095,20.3774834 14.5231788,19.0669527 14.5231788,17.4503311 C14.5231788,15.8337095 15.8337095,14.5231788 17.4503311,14.5231788 C19.0669527,14.5231788 20.3774834,15.8337095 20.3774834,17.4503311 C20.3774834,19.0669527 19.0669527,20.3774834 17.4503311,20.3774834 Z M12.1125828,29.589404 C10.4959612,29.589404 9.18543046,28.2788732 9.18543046,26.6622517 C9.18543046,25.0456301 10.4959612,23.7350993 12.1125828,23.7350993 C13.7292044,23.7350993 15.0397351,25.0456301 15.0397351,26.6622517 C15.0397351,28.2788732 13.7292044,29.589404 12.1125828,29.589404 Z M12.1125828,40.2649007 C10.4959612,40.2649007 9.18543046,38.9543699 9.18543046,37.3377483 C9.18543046,35.7211268 10.4959612,34.410596 12.1125828,34.410596 C13.7292044,34.410596 15.0397351,35.7211268 15.0397351,37.3377483 C15.0397351,38.9543699 13.7292044,40.2649007 12.1125828,40.2649007 Z M37.3377483,15.0397351 C35.7211268,15.0397351 34.410596,13.7292044 34.410596,12.1125828 C34.410596,10.4959612 35.7211268,9.18543046 37.3377483,9.18543046 C38.9543699,9.18543046 40.2649007,10.4959612 40.2649007,12.1125828 C40.2649007,13.7292044 38.9543699,15.0397351 37.3377483,15.0397351 Z M46.6357616,20.3774834 C45.01914,20.3774834 43.7086093,19.0669527 43.7086093,17.4503311 C43.7086093,15.8337095 45.01914,14.5231788 46.6357616,14.5231788 C48.2523832,14.5231788 49.5629139,15.8337095 49.5629139,17.4503311 C49.5629139,19.0669527 48.2523832,20.3774834 46.6357616,20.3774834 Z M51.9735099,29.589404 C50.3568883,29.589404 49.0463576,28.2788732 49.0463576,26.6622517 C49.0463576,25.0456301 50.3568883,23.7350993 51.9735099,23.7350993 C53.5901315,23.7350993 54.9006623,25.0456301 54.9006623,26.6622517 C54.9006623,28.2788732 53.5901315,29.589404 51.9735099,29.589404 Z M51.8874172,40.3509934 C50.2707956,40.3509934 48.9602649,39.0404626 48.9602649,37.4238411 C48.9602649,35.8072195 50.2707956,34.4966887 51.8874172,34.4966887 C53.5040388,34.4966887 54.8145695,35.8072195 54.8145695,37.4238411 C54.8145695,39.0404626 53.5040388,40.3509934 51.8874172,40.3509934 Z M46.6357616,49.5629139 C45.01914,49.5629139 43.7086093,48.2523832 43.7086093,46.6357616 C43.7086093,45.01914 45.01914,43.7086093 46.6357616,43.7086093 C48.2523832,43.7086093 49.5629139,45.01914 49.5629139,46.6357616 C49.5629139,48.2523832 48.2523832,49.5629139 46.6357616,49.5629139 Z M37.3377483,54.9006623 C35.7211268,54.9006623 34.410596,53.5901315 34.410596,51.9735099 C34.410596,50.3568883 35.7211268,49.0463576 37.3377483,49.0463576 C38.9543699,49.0463576 40.2649007,50.3568883 40.2649007,51.9735099 C40.2649007,53.5901315 38.9543699,54.9006623 37.3377483,54.9006623 Z M26.6622517,54.9006623 C25.0456301,54.9006623 23.7350993,53.5901315 23.7350993,51.9735099 C23.7350993,50.3568883 25.0456301,49.0463576 26.6622517,49.0463576 C28.2788732,49.0463576 29.589404,50.3568883 29.589404,51.9735099 C29.589404,53.5901315 28.2788732,54.9006623 26.6622517,54.9006623 Z M17.4503311,49.5629139 C15.8337095,49.5629139 14.5231788,48.2523832 14.5231788,46.6357616 C14.5231788,45.01914 15.8337095,43.7086093 17.4503311,43.7086093 C19.0669527,43.7086093 20.3774834,45.01914 20.3774834,46.6357616 C20.3774834,48.2523832 19.0669527,49.5629139 17.4503311,49.5629139 Z M26.7483444,15.0397351 C25.1317228,15.0397351 23.8211921,13.7292044 23.8211921,12.1125828 C23.8211921,10.4959612 25.1317228,9.18543046 26.7483444,9.18543046 C28.364966,9.18543046 29.6754967,10.4959612 29.6754967,12.1125828 C29.6754967,13.7292044 28.364966,15.0397351 26.7483444,15.0397351 Z" id="Combined-Shape" fill="#F4F4F4"></path>
        </g>
    </g>
</svg>