<svg width="305" height="148" viewBox="0 0 305 148" xmlns="http://www.w3.org/2000/svg"><title>kipfit</title><path d="M59.656 95.448L32.872 70.824 56.92 54.552c3.888-2.88 4.896-8.352 2.016-12.24-2.736-4.032-8.208-4.896-12.24-2.16L18.328 59.736V11.064A8.727 8.727 0 0 0 9.544 2.28 8.727 8.727 0 0 0 .76 11.064v91.728a8.727 8.727 0 0 0 8.784 8.784 8.727 8.727 0 0 0 8.784-8.784V81.336l29.376 27.072c1.728 1.584 3.744 2.304 5.904 2.304 2.304 0 4.752-1.008 6.48-2.736 3.312-3.744 3.024-9.216-.432-12.528zm19.008-68.976c-5.04 0-9.072-4.032-9.072-8.784v-.72c0-5.04 4.032-8.928 9.072-8.928 4.752 0 8.784 3.888 8.784 8.928v.72c0 4.752-4.032 8.784-8.784 8.784zm0 84.528c-5.04 0-9.072-4.032-9.072-8.928V46.488c0-4.896 4.032-8.784 9.072-8.784 4.752 0 8.784 3.888 8.784 8.784v55.584c0 4.896-4.032 8.928-8.784 8.928zm60.192-72.288c20.016 0 36.432 16.272 36.432 36.432 0 20.16-16.416 36.432-36.432 36.432-7.488 0-14.4-2.304-20.304-6.048v33.696c0 4.896-3.888 8.784-8.64 8.784a8.727 8.727 0 0 1-8.784-8.784V47.64c0-4.752 3.888-8.64 8.784-8.64 3.888 0 7.2 2.592 8.352 6.048 5.76-4.032 12.96-6.336 20.592-6.336zm0 55.44c10.368 0 19.008-8.496 19.008-19.008 0-10.512-8.64-19.008-19.008-19.008-10.512 0-19.008 8.496-19.008 19.008 0 10.512 8.496 19.008 19.008 19.008zm92.16-88.272C226.12 2.136 220.216.12 213.88.12c-15.696 0-28.512 12.816-28.512 28.512v72a8.727 8.727 0 0 0 8.784 8.784c4.752 0 8.64-3.888 8.64-8.784V64.2h13.68c4.896 0 8.784-4.032 8.784-8.784a8.727 8.727 0 0 0-8.784-8.784h-13.68V32.808c0-.72 0-1.44-.144-2.16.144-.576.144-1.296.144-2.016 0-6.048 5.04-10.944 11.088-10.944 2.448 0 4.752.72 6.624 2.16 3.888 2.88 9.648 1.584 12.24-1.728 2.448-3.168 2.16-9.36-1.728-12.24zm13.824 14.832a8.727 8.727 0 0 0-8.784 8.784v.432a8.727 8.727 0 0 0 8.784 8.784c4.752 0 8.64-3.888 8.64-8.784v-.432c0-4.896-3.888-8.784-8.64-8.784zm0 26.064c-4.896 0-8.784 3.888-8.784 8.64v45.216a8.727 8.727 0 0 0 8.784 8.784c4.752 0 8.64-3.888 8.64-8.784V55.416c0-4.752-3.888-8.64-8.64-8.64zm50.688 46.512c-1.008 0-2.304.144-3.024-.576-1.008-.864-.72-2.592-1.008-3.744V54.696h4.752c4.752 0 8.64-3.888 8.64-8.64 0-4.752-3.888-8.64-8.64-8.64h-4.752V9.912c0-4.752-3.888-8.64-8.64-8.64-4.752 0-8.64 3.888-8.64 8.64v27.504h-6.192c-4.752 0-8.64 3.888-8.64 8.64 0 4.752 3.888 8.64 8.64 8.64h6.192v36.288c0 4.464 2.016 9.648 4.896 12.96 3.312 3.744 7.92 5.76 12.672 6.48 1.296.144 2.448.144 3.744.144 4.752 0 8.64-3.744 8.64-8.64 0-4.752-3.888-8.64-8.64-8.64z" fill="#FFF" fill-rule="evenodd"/></svg>