<?xml version="1.0" encoding="UTF-8"?>
<svg width="757px" height="141px" viewBox="0 0 757 141" version="1.1" xmlns="http://www.w3.org/2000/svg" xmlns:xlink="http://www.w3.org/1999/xlink">
    <!-- Generator: Sketch 47.1 (45422) - http://www.bohemiancoding.com/sketch -->
    <title>Group</title>
    <desc>Created with Sketch.</desc>
    <defs></defs>
    <g stroke="none" stroke-width="1" fill="none" fill-rule="evenodd">
        <g>
            <path d="M24.104,76.502 L0.696,76.502 C0.59333282,83.2780339 1.8253205,89.1299754 4.392,94.058 C6.9586795,98.9860246 10.4236448,103.041317 14.787,106.224 C19.1503551,109.406683 24.1809715,111.742326 29.879,113.231 C35.5770285,114.719674 41.4546364,115.464 47.512,115.464 C55.0067041,115.464 61.6029715,114.591342 67.301,112.846 C72.9990285,111.100658 77.7729807,108.662349 81.623,105.531 C85.4730192,102.399651 88.3733236,98.6780216 90.324,94.366 C92.2746764,90.0539784 93.25,85.3826918 93.25,80.352 C93.25,74.1919692 91.9410131,69.1356864 89.323,65.183 C86.7049869,61.2303136 83.5993513,58.0733451 80.006,55.712 C76.4126487,53.3506549 72.7936849,51.6310054 69.149,50.553 C65.5043151,49.4749946 62.6553436,48.7306687 60.602,48.32 C53.7232989,46.5746579 48.153688,45.137339 43.893,44.008 C39.632312,42.878661 36.2956787,41.749339 33.883,40.62 C31.4703213,39.490661 29.8533374,38.2586733 29.032,36.924 C28.2106626,35.5893267 27.8,33.8440108 27.8,31.688 C27.8,29.3266549 28.3133282,27.3760077 29.34,25.836 C30.3666718,24.2959923 31.6756587,23.0126718 33.267,21.986 C34.8583413,20.9593282 36.6293236,20.2406687 38.58,19.83 C40.5306764,19.4193313 42.4813236,19.214 44.432,19.214 C47.4093482,19.214 50.1556541,19.4706641 52.671,19.984 C55.1863459,20.4973359 57.4193236,21.3699938 59.37,22.602 C61.3206764,23.8340062 62.8863274,25.5279892 64.067,27.684 C65.2476726,29.8400108 65.9406656,32.5606502 66.146,35.846 L89.554,35.846 C89.554,29.4806348 88.3476787,24.0650223 85.935,19.599 C83.5223213,15.1329777 80.2626872,11.462681 76.156,8.588 C72.0493128,5.71331896 67.3523598,3.63433975 62.065,2.351 C56.7776402,1.06766025 51.2593621,0.426 45.51,0.426 C40.5819754,0.426 35.6540246,1.09332666 30.726,2.428 C25.7979754,3.76267334 21.3833528,5.81598614 17.482,8.588 C13.5806472,11.3600139 10.4236787,14.8249792 8.011,18.983 C5.59832127,23.1410208 4.392,28.0433051 4.392,33.69 C4.392,38.7206918 5.34165717,43.0069823 7.241,46.549 C9.14034283,50.0910177 11.6299846,53.0426549 14.71,55.404 C17.7900154,57.7653451 21.2806472,59.6903259 25.182,61.179 C29.0833528,62.6676741 33.0873128,63.9253282 37.194,64.952 C41.19802,66.081339 45.1506472,67.1079954 49.052,68.032 C52.9533528,68.9560046 56.4439846,70.0339938 59.524,71.266 C62.6040154,72.4980062 65.0936572,74.0379908 66.993,75.886 C68.8923428,77.7340092 69.842,80.1466518 69.842,83.124 C69.842,85.8960139 69.1233405,88.1803243 67.686,89.977 C66.2486595,91.7736756 64.4520108,93.1853282 62.296,94.212 C60.1399892,95.2386718 57.8300123,95.9316649 55.366,96.291 C52.9019877,96.6503351 50.5920108,96.83 48.436,96.83 C45.2533174,96.83 42.1733482,96.4450038 39.196,95.675 C36.2186518,94.9049961 33.6263444,93.7243413 31.419,92.133 C29.2116556,90.5416587 27.4406733,88.4626795 26.106,85.896 C24.7713267,83.3293205 24.104,80.1980185 24.104,76.502 Z" fill="#FFFFFF"></path>
            <path d="M105.262,33.382 L126.052,33.382 L126.052,43.546 L126.36,43.546 C129.029347,39.2339784 132.417313,36.1026764 136.524,34.152 C140.630687,32.2013236 145.147975,31.226 150.076,31.226 C156.338698,31.226 161.728644,32.4066549 166.246,34.768 C170.763356,37.1293451 174.510652,40.2606472 177.488,44.162 C180.465348,48.0633528 182.672659,52.6063074 184.11,57.791 C185.547341,62.9756926 186.266,68.3913051 186.266,74.038 C186.266,79.3766934 185.547341,84.5099754 184.11,89.438 C182.672659,94.3660246 180.491015,98.7293143 177.565,102.528 C174.638985,106.326686 170.994355,109.355322 166.631,111.614 C162.267645,113.872678 157.160029,115.002 151.308,115.002 C146.379975,115.002 141.837021,114.00101 137.679,111.999 C133.520979,109.99699 130.107347,107.045353 127.438,103.144 L127.13,103.144 L127.13,140.874 L105.262,140.874 L105.262,33.382 Z M145.456,98.678 C149.049351,98.678 152.052321,97.9593405 154.465,96.522 C156.877679,95.0846595 158.828326,93.2110115 160.317,90.901 C161.805674,88.5909884 162.857997,85.8960154 163.474,82.816 C164.090003,79.7359846 164.398,76.6046826 164.398,73.422 C164.398,70.2393174 164.064337,67.1080154 163.397,64.028 C162.729663,60.9479846 161.626008,58.2016787 160.086,55.789 C158.545992,53.3763213 156.569679,51.4256741 154.157,49.937 C151.744321,48.4483259 148.792684,47.704 145.302,47.704 C141.708649,47.704 138.705679,48.4483259 136.293,49.937 C133.880321,51.4256741 131.929674,53.3506549 130.441,55.712 C128.952326,58.0733451 127.900003,60.7939846 127.284,63.874 C126.667997,66.9540154 126.36,70.1366502 126.36,73.422 C126.36,76.6046826 126.693663,79.7359846 127.361,82.816 C128.028337,85.8960154 129.106326,88.5909884 130.595,90.901 C132.083674,93.2110115 134.059988,95.0846595 136.524,96.522 C138.988012,97.9593405 141.965316,98.678 145.456,98.678 Z" fill="#FFFFFF"></path>
            <path d="M196.892,73.268 C196.892,66.9026348 197.867324,61.1276926 199.818,55.943 C201.768676,50.7583074 204.540649,46.3436849 208.134,42.699 C211.727351,39.0543151 216.039308,36.23101 221.07,34.229 C226.100692,32.22699 231.747302,31.226 238.01,31.226 C244.272698,31.226 249.944975,32.22699 255.027,34.229 C260.109025,36.23101 264.446649,39.0543151 268.04,42.699 C271.633351,46.3436849 274.405324,50.7583074 276.356,55.943 C278.306676,61.1276926 279.282,66.9026348 279.282,73.268 C279.282,79.6333652 278.306676,85.382641 276.356,90.516 C274.405324,95.649359 271.633351,100.038315 268.04,103.683 C264.446649,107.327685 260.109025,110.125324 255.027,112.076 C249.944975,114.026676 244.272698,115.002 238.01,115.002 C231.747302,115.002 226.100692,114.026676 221.07,112.076 C216.039308,110.125324 211.727351,107.327685 208.134,103.683 C204.540649,100.038315 201.768676,95.649359 199.818,90.516 C197.867324,85.382641 196.892,79.6333652 196.892,73.268 Z M218.76,73.268 C218.76,76.4506826 219.067997,79.5563182 219.684,82.585 C220.300003,85.6136818 221.352326,88.3343213 222.841,90.747 C224.329674,93.1596787 226.305988,95.0846595 228.77,96.522 C231.234012,97.9593405 234.313982,98.678 238.01,98.678 C241.706018,98.678 244.811654,97.9593405 247.327,96.522 C249.842346,95.0846595 251.844326,93.1596787 253.333,90.747 C254.821674,88.3343213 255.873997,85.6136818 256.49,82.585 C257.106003,79.5563182 257.414,76.4506826 257.414,73.268 C257.414,70.0853174 257.106003,66.9540154 256.49,63.874 C255.873997,60.7939846 254.821674,58.0733451 253.333,55.712 C251.844326,53.3506549 249.842346,51.4256741 247.327,49.937 C244.811654,48.4483259 241.706018,47.704 238.01,47.704 C234.313982,47.704 231.234012,48.4483259 228.77,49.937 C226.305988,51.4256741 224.329674,53.3506549 222.841,55.712 C221.352326,58.0733451 220.300003,60.7939846 219.684,63.874 C219.067997,66.9540154 218.76,70.0853174 218.76,73.268 Z" fill="#FFFFFF"></path>
            <path d="M293.45,33.382 L293.45,113 L315.318,113 L315.318,77.118 C315.318,73.5246487 315.67733,70.1880154 316.396,67.108 C317.11467,64.0279846 318.320992,61.3330115 320.015,59.023 C321.709008,56.7129884 323.941986,54.8906733 326.714,53.556 C329.486014,52.2213267 332.87398,51.554 336.878,51.554 C338.212673,51.554 339.598659,51.6309992 341.036,51.785 C342.473341,51.9390008 343.705328,52.1186656 344.732,52.324 L344.732,31.996 C342.986658,31.4826641 341.395341,31.226 339.958,31.226 C337.185986,31.226 334.51668,31.6366626 331.95,32.458 C329.383321,33.2793374 326.970678,34.4343259 324.712,35.923 C322.453322,37.4116741 320.451342,39.2083228 318.706,41.313 C316.960658,43.4176772 315.574672,45.7019877 314.548,48.166 L314.24,48.166 L314.24,33.382 L293.45,33.382 Z" fill="#FFFFFF"></path>
            <path d="M390.076,33.382 L390.076,9.512 L368.208,9.512 L368.208,33.382 L354.964,33.382 L354.964,48.012 L368.208,48.012 L368.208,94.982 C368.208,98.98602 368.875327,102.219988 370.21,104.684 C371.544673,107.148012 373.366988,109.047327 375.677,110.382 C377.987012,111.716673 380.656318,112.614998 383.685,113.077 C386.713682,113.539002 389.921983,113.77 393.31,113.77 C395.466011,113.77 397.673322,113.718667 399.932,113.616 C402.190678,113.513333 404.243991,113.308002 406.092,113 L406.092,96.06 C405.065328,96.2653344 403.987339,96.4193328 402.858,96.522 C401.728661,96.6246672 400.548006,96.676 399.316,96.676 C395.619982,96.676 393.156006,96.0600062 391.924,94.828 C390.691994,93.5959938 390.076,91.1320185 390.076,87.436 L390.076,48.012 L406.092,48.012 L406.092,33.382 L390.076,33.382 Z" fill="#FFFFFF"></path>
            <path d="M433.504,87.128 L412.714,87.128 C412.919334,92.4666934 414.125656,96.9069823 416.333,100.449 C418.540344,103.991018 421.363649,106.839989 424.803,108.996 C428.242351,111.152011 432.169311,112.691995 436.584,113.616 C440.998689,114.540005 445.515977,115.002 450.136,115.002 C454.653356,115.002 459.093645,114.565671 463.457,113.693 C467.820355,112.820329 471.695983,111.306011 475.084,109.15 C478.472017,106.993989 481.218323,104.145018 483.323,100.603 C485.427677,97.0609823 486.48,92.6720262 486.48,87.436 C486.48,83.7399815 485.761341,80.6343459 484.324,78.119 C482.886659,75.6036541 480.987345,73.4990085 478.626,71.805 C476.264655,70.1109915 473.569682,68.7506718 470.541,67.724 C467.512318,66.6973282 464.406683,65.8246703 461.224,65.106 C458.143985,64.3873297 455.115348,63.7200031 452.138,63.104 C449.160652,62.4879969 446.517012,61.7950038 444.207,61.025 C441.896988,60.2549961 440.023341,59.2540062 438.586,58.022 C437.148659,56.7899938 436.43,55.1986764 436.43,53.248 C436.43,51.6053251 436.840663,50.2963382 437.662,49.321 C438.483337,48.3456618 439.484327,47.6013359 440.665,47.088 C441.845673,46.5746641 443.154659,46.2410008 444.592,46.087 C446.029341,45.9329992 447.363994,45.856 448.596,45.856 C452.497353,45.856 455.885319,46.6003259 458.76,48.089 C461.634681,49.5776741 463.225998,52.4266456 463.534,56.636 L484.324,56.636 C483.913331,51.7079754 482.655677,47.6270162 480.551,44.393 C478.446323,41.1589838 475.802683,38.5666764 472.62,36.616 C469.437317,34.6653236 465.818354,33.2793374 461.763,32.458 C457.707646,31.6366626 453.524022,31.226 449.212,31.226 C444.899978,31.226 440.690687,31.6109961 436.584,32.381 C432.477313,33.1510038 428.78135,34.4856572 425.496,36.385 C422.21065,38.2843428 419.56701,40.8766502 417.565,44.162 C415.56299,47.4473498 414.562,51.656641 414.562,56.79 C414.562,60.2806841 415.280659,63.2323213 416.718,65.645 C418.155341,68.0576787 420.054655,70.0596587 422.416,71.651 C424.777345,73.2423413 427.472318,74.5256618 430.501,75.501 C433.529682,76.4763382 436.635317,77.3233297 439.818,78.042 C447.620706,79.6846749 453.703645,81.3273251 458.067,82.97 C462.430355,84.6126749 464.612,87.0766502 464.612,90.362 C464.612,92.3126764 464.150005,93.9296602 463.226,95.213 C462.301995,96.4963398 461.147007,97.5229961 459.761,98.293 C458.374993,99.0630038 456.835008,99.6276649 455.141,99.987 C453.446992,100.346335 451.830008,100.526 450.29,100.526 C448.133989,100.526 446.05501,100.269336 444.053,99.756 C442.05099,99.2426641 440.280008,98.4470054 438.74,97.369 C437.199992,96.2909946 435.942338,94.9050085 434.967,93.211 C433.991662,91.5169915 433.504,89.4893451 433.504,87.128 Z" fill="#FFFFFF"></path>
            <polygon fill="#FF7F40" points="501.572 3.044 501.572 113 525.75 113 525.75 67.57 571.796 67.57 571.796 48.782 525.75 48.782 525.75 23.372 578.88 23.372 578.88 3.044"></polygon>
            <path d="M665.274,113 L665.274,33.382 L643.406,33.382 L643.406,75.116 C643.406,83.2267072 642.071347,89.0529823 639.402,92.595 C636.732653,96.1370177 632.420696,97.908 626.466,97.908 C621.229974,97.908 617.585344,96.2910162 615.532,93.057 C613.478656,89.8229838 612.452,84.9206995 612.452,78.35 L612.452,33.382 L590.584,33.382 L590.584,82.354 C590.584,87.2820246 591.020329,91.7736464 591.893,95.829 C592.765671,99.8843536 594.279989,103.323653 596.436,106.147 C598.592011,108.970347 601.543648,111.151992 605.291,112.692 C609.038352,114.232008 613.837971,115.002 619.69,115.002 C624.310023,115.002 628.827311,113.975344 633.242,111.922 C637.656689,109.868656 641.249986,106.532023 644.022,101.912 L644.484,101.912 L644.484,113 L665.274,113 Z" fill="#FF7F40"></path>
            <path d="M681.906,33.382 L681.906,113 L703.774,113 L703.774,71.266 C703.774,63.1552928 705.108653,57.3290177 707.778,53.787 C710.447347,50.2449823 714.759304,48.474 720.714,48.474 C725.950026,48.474 729.594656,50.0909838 731.648,53.325 C733.701344,56.5590162 734.728,61.4613005 734.728,68.032 L734.728,113 L756.596,113 L756.596,64.028 C756.596,59.0999754 756.159671,54.6083536 755.287,50.553 C754.414329,46.4976464 752.900011,43.0583474 750.744,40.235 C748.587989,37.4116525 745.636352,35.2043413 741.889,33.613 C738.141648,32.0216587 733.342029,31.226 727.49,31.226 C722.869977,31.226 718.352689,32.2783228 713.938,34.383 C709.523311,36.4876772 705.930014,39.8499769 703.158,44.47 L702.696,44.47 L702.696,33.382 L681.906,33.382 Z" fill="#FF7F40"></path>
        </g>
    </g>
</svg>